<?xml version="1.0" encoding="UTF-8"?>
<svg width="58px" height="69px" viewBox="0 0 58 69" version="1.1" xmlns="http://www.w3.org/2000/svg" xmlns:xlink="http://www.w3.org/1999/xlink">
    <!-- Generator: Sketch 51.3 (57544) - http://www.bohemiancoding.com/sketch -->
    <title>Page 1</title>
    <desc>Created with Sketch.</desc>
    <defs></defs>
    <g id="Page-1" stroke="none" stroke-width="1" fill="none" fill-rule="evenodd" stroke-linecap="round" stroke-linejoin="round">
        <g id="select-category-ipad-horizontal" transform="translate(-561.000000, -262.000000)" stroke="#A5A5A5" stroke-width="1.8">
            <g id="Group-5" transform="translate(512.000000, 239.000000)">
                <g id="Page-1" transform="translate(50.000000, 24.000000)">
                    <path d="M34.3511522,12.7645153 C34.3511522,14.0573124 33.619809,15.1048225 32.7179582,15.1048225 C31.8152716,15.1048225 31.0839284,14.0573124 31.0839284,12.7645153 C31.0839284,11.4717182 31.8152716,10.4242081 32.7179582,10.4242081 C33.619809,10.4242081 34.3511522,11.4717182 34.3511522,12.7645153 L34.3511522,12.7645153 Z" id="Stroke-1"></path>
                    <path d="M36.1604537,23.5800777 C36.1604537,27.072898 32.4469015,29.9054593 27.866603,29.9054593 C23.2863045,29.9054593 19.5735881,27.072898 19.5735881,23.5800777 C19.5735881,20.0872575 23.2863045,17.2546962 27.866603,17.2546962 C32.4469015,17.2546962 36.1604537,20.0872575 36.1604537,23.5800777 L36.1604537,23.5800777 Z" id="Stroke-3"></path>
                    <path d="M30.356597,21.602913 C30.356597,22.684864 29.1822687,23.5618492 27.7346269,23.5618492 C26.2861493,23.5618492 25.1126567,22.684864 25.1126567,21.602913 C25.1126567,20.5209619 26.2861493,19.6439768 27.7346269,19.6439768 C29.1822687,19.6439768 30.356597,20.5209619 30.356597,21.602913 L30.356597,21.602913 Z" id="Stroke-5"></path>
                    <path d="M27,23.5620172 L27,27.736097" id="Stroke-7"></path>
                    <path d="M24.1128478,12.7645153 C24.1128478,14.0573124 23.3815045,15.1048225 22.4796537,15.1048225 C21.5769672,15.1048225 20.8456239,14.0573124 20.8456239,12.7645153 C20.8456239,11.4717182 21.5769672,10.4242081 22.4796537,10.4242081 C23.3815045,10.4242081 24.1128478,11.4717182 24.1128478,12.7645153 L24.1128478,12.7645153 Z" id="Stroke-9"></path>
                    <path d="M16.5894567,5.17548547 C15.8781731,4.60258903 14.9754866,4.26069922 13.993397,4.26069922 C11.6990687,4.26069922 9.83853134,6.12975286 9.83853134,8.43645907 C9.83853134,9.7334563 10.4921433,11.1236962 11.3505313,11.6587916 L11.3480239,11.6571115 C12.5173373,9.12359879 14.3151881,6.91181531 16.5543522,5.20320627" id="Stroke-11"></path>
                    <path d="M19.4609194,33.6171058 C13.7455761,30.7727842 9.8448,25.0732206 9.8448,18.5059121 C9.8448,17.3794398 9.95930746,16.2798482 10.1782925,15.2146976 L10.1415164,15.2071374 C7.80706866,13.8630988 6.23488955,11.3337862 6.23488955,8.43654307 C6.23488955,4.12973946 9.70856119,0.637759228 13.9938149,0.637759228 C16.2923224,0.637759228 18.3576358,1.64242807 19.7776955,3.23847388" id="Stroke-13"></path>
                    <path d="M36.1542687,3.26174254 C37.5751642,1.66569673 39.6404776,0.661027896 41.9389851,0.661027896 C46.2242388,0.661027896 49.6979104,4.15300813 49.6979104,8.45981174 C49.6979104,11.3570549 48.1248955,13.8863675 45.7904478,15.2304061 L45.7545075,15.2379663 C45.9726567,16.3031169 46.088,17.4027084 46.088,18.5283407 C46.088,25.0780087 42.2081194,30.7641319 36.5186866,33.6168538" id="Stroke-15"></path>
                    <path d="M17.7562627,48.7291396 C17.7562627,46.4182332 18.5419343,44.2870921 19.8658746,42.577643" id="Stroke-17"></path>
                    <path d="M35.0683701,56.3588266 C33.2312358,57.9523523 30.8140418,58.9209001 28.1661612,58.9209001 C25.1697433,58.9209001 22.4683701,57.6810245 20.5693851,55.6968876" id="Stroke-19"></path>
                    <path d="M36.5167642,42.6421569 C37.8106149,44.3406856 38.5770627,46.4474661 38.5770627,48.7289716" id="Stroke-21"></path>
                    <path d="M36.1318687,3.25250228 C33.7405851,2.12350987 31.0475701,1.48929167 28.1974209,1.48929167 L27.7343761,1.46577099 C24.8850627,1.46577099 22.1912119,2.10082922 19.8007642,3.2289816" id="Stroke-23"></path>
                    <path d="M39.3429254,5.19867014 C40.054209,4.62577369 40.9568955,4.28388388 41.9389851,4.28388388 C44.2333134,4.28388388 46.0938507,6.15293753 46.0938507,8.45964374 C46.0938507,9.75664096 45.4402388,11.1468809 44.5818507,11.6819762 L44.5843582,11.6802962 C43.4150448,9.14678346 41.617194,6.93499998 39.3780299,5.22639093" id="Stroke-25"></path>
                    <path d="M32.478997,26.1871766 C31.2403104,27.1448041 29.5293851,27.736181 27.6387582,27.736181 L28.0951164,27.736181 C26.2044896,27.736181 24.4935642,27.1448041 23.2548776,26.1871766" id="Stroke-27"></path>
                    <path d="M10.850209,48.0051228 C10.7816716,47.3667045 10.747403,46.7182059 10.747403,46.060467 C10.747403,40.4835469 13.2657313,35.5106042 17.1999403,32.2731512" id="Stroke-29"></path>
                    <path d="M36.5173493,61.3978792 C33.9981851,62.8796817 31.0786627,63.726426 27.9660657,63.726426 C24.9178269,63.726426 22.0543045,62.9141227 19.5702448,61.4886018" id="Stroke-31"></path>
                    <path d="M38.7462328,32.2844916 C42.6720836,35.5227845 45.185397,40.4906871 45.185397,46.060887 C45.185397,46.7203059 45.1502925,47.3721646 45.0809194,48.013103" id="Stroke-33"></path>
                    <path d="M45.100394,40.8202286 C46.8581254,41.1637984 48.6584836,41.287282 50.4404537,41.1864791 C51.8371104,41.1075168 53.3023045,40.8563496 54.3353791,39.9886047 C55.8298269,38.7327687 55.9827821,36.6024675 55.9384836,34.6981329 C55.9242746,34.0714749 55.8908418,33.414576 55.5506627,32.8685603 C54.8410507,31.7303277 53.1919761,31.5698831 51.8011701,31.5455224 C48.7420657,31.4926008 45.6829612,31.4463995 42.6238567,31.4060784 L39.9057672,31.4060784" id="Stroke-35"></path>
                    <path d="M10.8446925,41.4817476 C9.08696119,41.8253174 7.28660299,41.948801 5.50463284,41.8479981 C4.10797612,41.7690358 2.64278209,41.5178686 1.60970746,40.6501237 C0.115259701,39.3942876 -0.0376955224,37.2639865 0.00660298507,35.3596518 C0.0208119403,34.7329939 0.0542447761,34.076095 0.394423881,33.5300793 C1.10403582,32.3918467 2.75311045,32.231402 4.14391642,32.2070414 C7.2030209,32.1541198 10.2621254,32.1079185 13.3212299,32.0675973 L16.0393194,32.0675973" id="Stroke-37"></path>
                    <path d="M30.4354149,35.8665224 C31.4133254,34.3351584 32.8643104,33.1146034 34.5351164,32.4165434 C34.7716537,32.3174205 35.0407881,32.229218 35.2764896,32.3291809 C35.4787582,32.4140233 35.6032955,32.6164691 35.708609,32.8096746 C37.126997,35.3885487 37.6376836,38.4596768 37.1295045,41.3619601 C37.0735045,41.6836894 36.9606687,42.05582 36.6530866,42.1608231 C36.5168478,42.2061844 36.3680716,42.1877038 36.2259821,42.1658632 C34.2133254,41.8567343 32.2909373,40.973029 30.7413254,39.6457909" id="Stroke-39"></path>
                    <path d="M26.1551761,35.8422457 C25.1028776,34.1949584 23.5415642,32.8803207 21.7428776,32.1293391 C21.4887881,32.0226561 21.1987582,31.9277333 20.9446687,32.0352564 C20.7273552,32.126819 20.5936239,32.3443853 20.4799522,32.5518712 C18.9537433,35.3273109 18.4037731,38.6336458 18.9504,41.7568555 C19.0114149,42.1029454 19.132609,42.5036369 19.463594,42.6162001 C19.6106985,42.6657615 19.7703403,42.645601 19.9232955,42.6220803 C22.0889075,42.2885907 24.1584,41.3376834 25.8258627,39.9096424" id="Stroke-41"></path>
                    <path d="M28.5757134,40.4042486 L28.5757134,40.4042486 C27.2442507,40.4042486 26.1551761,39.3096972 26.1551761,37.9715388 L26.1551761,37.4994453 C26.1551761,36.1621269 27.2442507,35.0667354 28.5757134,35.0667354 L28.5757134,35.0667354 C29.9071761,35.0667354 30.9962507,36.1621269 30.9962507,37.4994453 L30.9962507,37.9715388 C30.9962507,39.3096972 29.9071761,40.4042486 28.5757134,40.4042486 L28.5757134,40.4042486 Z" id="Stroke-43"></path>
                    <path d="M17.1335761,57.2006147 C17.0708896,60.3565853 14.3151881,62.9833407 11.9907701,62.9833407 C9.66635224,62.9833407 6.70754627,60.3540652 6.56796418,57.2006147 C6.39494925,53.2886224 9.66635224,51.5539727 11.9907701,51.5539727 C14.3151881,51.5539727 17.2338746,52.1335893 17.1335761,57.2006147 L17.1335761,57.2006147 Z" id="Stroke-45"></path>
                    <path d="M20.4667463,57.1984307 C20.0580299,62.297377 15.8989851,66.5714197 12.1319403,66.5714197 C8.3640597,66.5714197 3.5681194,62.3091374 3.34244776,57.1984307 C3.06244776,50.8587687 8.3640597,48.046368 12.1319403,48.046368 C15.8989851,48.046368 21.1078209,49.198041 20.4667463,57.1984307 L20.4667463,57.1984307 Z" id="Stroke-47"></path>
                    <path d="M38.4554507,57.2006147 C38.5181373,60.3565853 41.2738388,62.9833407 43.5982567,62.9833407 C45.9226746,62.9833407 48.8814806,60.3540652 49.0210627,57.2006147 C49.1940776,53.2886224 45.9226746,51.5539727 43.5982567,51.5539727 C41.2738388,51.5539727 38.3551522,52.1335893 38.4554507,57.2006147 L38.4554507,57.2006147 Z" id="Stroke-49"></path>
                    <path d="M35.1222806,57.1984307 C35.530997,62.297377 39.6900418,66.5714197 43.4570866,66.5714197 C47.2249672,66.5714197 52.0209075,62.3091374 52.2465791,57.1984307 C52.5265791,50.8587687 47.2249672,48.046368 43.4570866,48.046368 C39.6900418,48.046368 34.481206,49.198041 35.1222806,57.1984307 L35.1222806,57.1984307 Z" id="Stroke-51"></path>
                </g>
            </g>
        </g>
    </g>
</svg>