<?xml version="1.0" encoding="UTF-8"?>
<svg width="90px" height="67px" viewBox="0 0 90 67" version="1.1" xmlns="http://www.w3.org/2000/svg" xmlns:xlink="http://www.w3.org/1999/xlink">
    <!-- Generator: Sketch 51.3 (57544) - http://www.bohemiancoding.com/sketch -->
    <title>Page 1</title>
    <desc>Created with Sketch.</desc>
    <defs></defs>
    <g id="Page-1" stroke="none" stroke-width="1" fill="none" fill-rule="evenodd">
        <g id="select-category-ipad-horizontal" transform="translate(-732.000000, -242.000000)">
            <g id="Group-5" transform="translate(512.000000, 239.000000)">
                <g id="Page-1" transform="translate(221.000000, 3.000000)">
                    <g id="Group-25" transform="translate(0.000000, 2.899274)">
                        <polyline id="Stroke-1" stroke="#A5A5A5" stroke-width="2" stroke-linecap="round" stroke-linejoin="round" points="84.4628737 7.00297368 87.8952289 7.00297368 87.8952289 62.4742719 -0.000468421053 62.4742719 -0.000468421053 7.00297368 4.20009737 7.00297368"></polyline>
                        <path d="M69.4779671,2.44144912 C70.9851118,2.44144912 70.9874539,0.0905719298 69.4779671,0.0905719298 C67.9708224,0.0905719298 67.9684803,2.44144912 69.4779671,2.44144912" id="Fill-3" fill="#A5A5A5"></path>
                        <path d="M12.0641842,32.8074947 C20.1374211,30.9209158 28.3465,30.3437754 36.6047632,31.0349333 C38.1060526,31.1607053 38.0978553,28.8098281 36.6047632,28.6840561 C28.1427368,27.9752667 19.7088158,28.6088281 11.4411842,30.5400737 C9.97385526,30.8833018 10.5956842,33.1507228 12.0641842,32.8074947" id="Fill-5" fill="#A5A5A5"></path>
                        <path d="M12.0641842,38.6577702 C20.1374211,36.7711912 28.3465,36.1940509 36.6047632,36.8852088 C38.1060526,37.0109807 38.0978553,34.6601035 36.6047632,34.5343316 C28.1427368,33.8255421 19.7088158,34.4591035 11.4411842,36.3903491 C9.97385526,36.7335772 10.5956842,39.0009982 12.0641842,38.6577702" id="Fill-7" fill="#A5A5A5"></path>
                        <path d="M69.6150332,26.9199579 C63.4792746,26.0348526 57.3435161,25.8162211 51.1660413,26.3369404 C49.6909099,26.4615368 49.6770045,28.8135895 51.1660413,28.6878175 C57.1291411,28.1859053 63.0725416,28.3316596 68.9985604,29.1873789 C70.4574688,29.3977825 71.087847,27.1327123 69.6150332,26.9199579" id="Fill-9" fill="#A5A5A5"></path>
                        <path d="M69.6150332,21.0698 C63.4792746,20.1846947 57.3435161,19.9660632 51.1660413,20.4867825 C49.6909099,20.6113789 49.6770045,22.9634316 51.1660413,22.8376596 C57.1291411,22.3357474 63.0725416,22.4815018 68.9985604,23.3372211 C70.4574688,23.5476246 71.087847,21.2825544 69.6150332,21.0698" id="Fill-11" fill="#A5A5A5"></path>
                        <path d="M59.6403053,37.7442193 C56.8133842,37.6995526 53.9946605,37.797114 51.1782789,38.0416053 C49.6875289,38.1709035 49.6734763,40.5229561 51.1782789,40.3924825 C53.9946605,40.1479912 56.8133842,40.0504298 59.6403053,40.0950965 C61.14745,40.1186053 61.1486211,37.7677281 59.6403053,37.7442193" id="Fill-13" fill="#A5A5A5"></path>
                        <path d="M69.6150332,32.7743474 C63.4792746,31.8892421 57.3435161,31.6706105 51.1660413,32.1913298 C49.6909099,32.3159263 49.6770045,34.6679789 51.1660413,34.542207 C57.1291411,34.0402947 63.0725416,34.1860491 68.9985604,35.0417684 C70.4574688,35.2521719 71.087847,32.9871018 69.6150332,32.7743474" id="Fill-15" fill="#A5A5A5"></path>
                        <path d="M12.0641842,13.1724982 C20.1374211,11.2859193 28.3465,10.7087789 36.6047632,11.3999368 C38.1060526,11.5257088 38.0978553,9.17483158 36.6047632,9.04905965 C28.1427368,8.34027018 19.7088158,8.97383158 11.4411842,10.9050772 C9.97385526,11.2483053 10.5956842,13.5157263 12.0641842,13.1724982" id="Fill-17" fill="#A5A5A5"></path>
                        <path d="M12.0641842,19.0227737 C20.1374211,17.1361947 28.3465,16.5590544 36.6047632,17.2502123 C38.1060526,17.3759842 38.0978553,15.025107 36.6047632,14.8993351 C28.1427368,14.1905456 19.7088158,14.824107 11.4411842,16.7553526 C9.97385526,17.0985807 10.5956842,19.3660018 12.0641842,19.0227737" id="Fill-19" fill="#A5A5A5"></path>
                        <path d="M12.0641842,25.2234474 C16.0340526,24.2925 20.0355395,23.6648158 24.1002632,23.3415702 C25.5933553,23.2240263 25.6050658,20.8719737 24.1002632,20.990693 C19.8282632,21.3303947 15.6148158,21.9780614 11.4411842,22.9560263 C9.97385526,23.3004298 10.5956842,25.5678509 12.0641842,25.2234474" id="Fill-21" fill="#A5A5A5"></path>
                        <path d="M68.3661697,8.67315439 C65.457275,8.47332982 62.5495513,8.42631228 59.6348013,8.53327719 C58.1323408,8.58852281 58.1253145,10.9394 59.6348013,10.8841544 C62.5495513,10.7771895 65.457275,10.824207 68.3661697,11.0240316 C69.8709724,11.1274702 69.8639461,8.77541754 68.3661697,8.67315439" id="Fill-23" fill="#A5A5A5"></path>
                    </g>
                    <g id="Group-34" transform="translate(3.513158, 0.723835)" stroke="#A5A5A5" stroke-linecap="round" stroke-linejoin="round" stroke-width="2">
                        <polygon id="Stroke-26" points="65.9975987 0.451603509 74.4315197 1.69051579 74.5942961 42.890814 70.3609408 39.3750772 65.9975987 41.9727965"></polygon>
                        <path d="M40.5503908,4.26366842 C40.5503908,4.26366842 43.8943105,0.760861404 65.5503908,3.1728614" id="Stroke-28"></path>
                        <path d="M75.6225974,4.4421 C77.1215447,4.66895965 78.6837289,4.91815263 80.3114921,5.19085439 L80.3114921,58.3994333 C80.3114921,58.3994333 46.5254526,53.6976789 40.5507421,58.3994333 L40.5507421,4.26343333" id="Stroke-30"></path>
                        <path d="M40.5503908,4.26366842 C40.5503908,4.26366842 35.7642987,-0.661419298 0.789640789,5.19108947 L0.789640789,58.3996684 C0.789640789,58.3996684 34.5756803,53.6967386 40.5503908,58.3996684" id="Stroke-32"></path>
                    </g>
                </g>
            </g>
        </g>
    </g>
</svg>