<?xml version="1.0" encoding="UTF-8"?>
<svg width="79px" height="47px" viewBox="0 0 79 47" version="1.1" xmlns="http://www.w3.org/2000/svg" xmlns:xlink="http://www.w3.org/1999/xlink">
    <!-- Generator: Sketch 51.3 (57544) - http://www.bohemiancoding.com/sketch -->
    <title>Page 1</title>
    <desc>Created with Sketch.</desc>
    <defs></defs>
    <g id="Page-1" stroke="none" stroke-width="1" fill="none" fill-rule="evenodd">
        <g id="select-category-ipad-horizontal" transform="translate(-512.000000, -338.000000)">
            <g id="Group-5" transform="translate(512.000000, 239.000000)">
                <g id="Page-1" transform="translate(0.000000, 99.000000)">
                    <path d="M28.2888,18.598 L28.2888,30.905" id="Stroke-1" stroke="#A5A5A5" stroke-width="2" stroke-linecap="round" stroke-linejoin="round"></path>
                    <polyline id="Stroke-2" stroke="#A5A5A5" stroke-width="2" stroke-linecap="round" stroke-linejoin="round" points="28.6975 15.0101 28.6975 8.8991 32.5145 8.8991 32.5145 11.9551 29.5455 11.9551"></polyline>
                    <g id="Group-47" transform="translate(0.000000, 0.732700)">
                        <path d="M30.3975,23.9767 C33.2135,23.9997 35.5585,23.6317 34.6525,22.1957 C32.6675,19.0497 34.6525,14.2197 34.6525,14.2197 L30.3965,14.2437 L26.9095,14.2417 L22.6535,14.2177 C22.6535,14.2177 24.6385,19.0477 22.6535,22.1937 C21.7475,23.6297 24.0925,23.9987 26.9085,23.9757 L30.3975,23.9767 L30.3975,23.9767 Z" id="Stroke-3" stroke="#A5A5A5" stroke-width="2" stroke-linecap="round" stroke-linejoin="round"></path>
                        <path d="M68.7855,25.9767 L61.0945,26.0237 C59.7915,26.0307 58.6135,26.9547 58.0885,28.3807 L53.2525,41.5027 C53.2525,41.5027 51.9735,44.9997 49.6225,44.9997 L17.4205,44.9997 L16.5195,44.9997 L5.2755,44.9997 C2.9235,44.9997 0.9995,42.6997 0.9995,39.8877 L0.9995,5.3797 C0.9995,2.5677 2.9235,0.2677 5.2755,0.2677 L16.5195,0.2677 L17.4205,0.2677 L49.6225,0.2677 C51.9735,0.2677 53.2525,2.4867 53.2525,2.4867 L58.0885,15.6097 C58.6135,17.0357 59.7915,17.9587 61.0945,17.9667 L68.7855,18.0127" id="Stroke-5" stroke="#A5A5A5" stroke-width="2" stroke-linecap="round" stroke-linejoin="round"></path>
                        <path d="M72.1978,29.1247 L70.1118,29.1247 C69.3958,29.1247 68.8108,28.5397 68.8108,27.8247 L68.8108,16.6207 C68.8108,15.9057 69.3958,15.3207 70.1118,15.3207 L72.1978,15.3207 C72.9128,15.3207 73.4978,15.9057 73.4978,16.6207 L73.4978,27.8247 C73.4978,28.5397 72.9128,29.1247 72.1978,29.1247 L72.1978,29.1247 Z" id="Stroke-7" stroke="#A5A5A5" stroke-width="2" stroke-linecap="round" stroke-linejoin="round"></path>
                        <polyline id="Stroke-9" stroke="#A5A5A5" stroke-width="2" stroke-linecap="round" stroke-linejoin="round" points="73.4981 19.5833 77.7021 16.8073 77.7021 27.8593 73.4981 24.6863"></polyline>
                        <path d="M28.3958,40.5261 L18.0488,40.5261 C16.4358,40.5261 14.8428,40.2141 13.3758,39.6101 L13.3758,39.6101 C10.1538,38.1991 5.8658,27.7971 5.8658,27.7971 L10.5948,27.7971 L13.0978,30.8131 L28.3958,30.8721" id="Stroke-11" stroke="#A5A5A5" stroke-width="2" stroke-linecap="round" stroke-linejoin="round"></path>
                        <path d="M22.8496,40.5261 L22.8496,43.5411" id="Stroke-13" stroke="#A5A5A5" stroke-width="2" stroke-linecap="round" stroke-linejoin="round"></path>
                        <path d="M32.9086,40.5261 L32.9086,43.9651" id="Stroke-15" stroke="#A5A5A5" stroke-width="2" stroke-linecap="round" stroke-linejoin="round"></path>
                        <path d="M43.7339,39.6103 L43.7339,43.9643" id="Stroke-17" stroke="#A5A5A5" stroke-width="2" stroke-linecap="round" stroke-linejoin="round"></path>
                        <path d="M12.5592,38.9845 L12.5592,43.3385" id="Stroke-19" stroke="#A5A5A5" stroke-width="2" stroke-linecap="round" stroke-linejoin="round"></path>
                        <path d="M45.4105,3.8137 L48.6325,3.8137 C49.4615,3.8137 50.2105,4.3597 50.5385,5.2017 L52.6845,10.7257" id="Stroke-21" stroke="#A5A5A5" stroke-width="2" stroke-linecap="round" stroke-linejoin="round"></path>
                        <path d="M52.6252,13.921 C53.0032,15.043 53.3822,16.166 53.7602,17.288 C54.1692,18.501 56.1012,17.981 55.6892,16.756 C55.3102,15.634 54.9322,14.512 54.5542,13.389 C54.1452,12.176 52.2122,12.697 52.6252,13.921" id="Fill-23" fill="#A5A5A5"></path>
                        <path d="M5.5656,3.8137 L17.0576,3.8137" id="Stroke-25" stroke="#A5A5A5" stroke-width="2" stroke-linecap="round" stroke-linejoin="round"></path>
                        <path d="M15.6002,17.9997 L15.6002,15.6557" id="Stroke-27" stroke="#A5A5A5" stroke-width="2" stroke-linecap="round" stroke-linejoin="round"></path>
                        <path d="M15.6002,30.0329 L15.6002,24.8709" id="Stroke-29" stroke="#A5A5A5" stroke-width="2" stroke-linecap="round" stroke-linejoin="round"></path>
                        <path d="M28.653,40.5261 L39,40.5261 C40.613,40.5261 42.206,40.2141 43.673,39.6101 L43.673,39.6101 C46.895,38.1991 51.183,27.7971 51.183,27.7971 L46.454,27.7971 L43.951,30.8131 L28.653,30.8721" id="Stroke-31" stroke="#A5A5A5" stroke-width="2" stroke-linecap="round" stroke-linejoin="round"></path>
                        <path d="M21.2823,33.9604 L35.7663,33.9604" id="Stroke-33" stroke="#A5A5A5" stroke-width="2" stroke-linecap="round" stroke-linejoin="round"></path>
                        <polyline id="Stroke-35" stroke="#A5A5A5" stroke-width="2" stroke-linecap="round" stroke-linejoin="round" points="15.6002 18.8095 11.0512 18.8095 12.3742 24.3555 15.6002 24.3555"></polyline>
                        <polyline id="Stroke-37" stroke="#A5A5A5" stroke-width="2" stroke-linecap="round" stroke-linejoin="round" points="15.7764 18.8095 20.3254 18.8095 19.0024 24.3555 15.7764 24.3555"></polyline>
                        <path d="M41.4335,17.9997 L41.4335,15.6557" id="Stroke-39" stroke="#A5A5A5" stroke-width="2" stroke-linecap="round" stroke-linejoin="round"></path>
                        <path d="M41.4335,30.0329 L41.4335,24.8709" id="Stroke-41" stroke="#A5A5A5" stroke-width="2" stroke-linecap="round" stroke-linejoin="round"></path>
                        <polyline id="Stroke-43" stroke="#A5A5A5" stroke-width="2" stroke-linecap="round" stroke-linejoin="round" points="41.4335 18.8095 36.8845 18.8095 38.2075 24.3555 41.4335 24.3555"></polyline>
                        <polyline id="Stroke-45" stroke="#A5A5A5" stroke-width="2" stroke-linecap="round" stroke-linejoin="round" points="41.6098 18.8095 46.1588 18.8095 44.8358 24.3555 41.6098 24.3555"></polyline>
                    </g>
                </g>
            </g>
        </g>
    </g>
</svg>