<?xml version="1.0" encoding="UTF-8"?>
<svg width="103px" height="68px" viewBox="0 0 103 68" version="1.1" xmlns="http://www.w3.org/2000/svg" xmlns:xlink="http://www.w3.org/1999/xlink">
    <!-- Generator: Sketch 51.3 (57544) - http://www.bohemiancoding.com/sketch -->
    <title>Page 1</title>
    <desc>Created with Sketch.</desc>
    <defs></defs>
    <g id="Page-1" stroke="none" stroke-width="1" fill="none" fill-rule="evenodd" stroke-linecap="round" stroke-linejoin="round">
        <g id="select-category-ipad-horizontal" transform="translate(-674.000000, -377.000000)" stroke="#A5A5A5" stroke-width="2">
            <g id="Group-5" transform="translate(512.000000, 239.000000)">
                <g id="Page-1" transform="translate(163.000000, 139.000000)">
                    <g id="Group-27" transform="translate(95.544304, 0.142785)">
                        <path d="M5.23608608,0.140233962 L0.810060759,0.140233962" id="Stroke-1"></path>
                        <path d="M5.23608608,65.4339623 L0.80876962,65.4339623" id="Stroke-3"></path>
                        <path d="M5.23608608,49.644234 L0.801022785,49.644234" id="Stroke-5"></path>
                        <path d="M5.23608608,44.1357208 L0.801022785,44.1357208" id="Stroke-7"></path>
                        <path d="M5.23608608,38.5136604 L0.801022785,38.5136604" id="Stroke-9"></path>
                        <path d="M5.23608608,33.0050189 L0.801022785,33.0050189" id="Stroke-11"></path>
                        <path d="M5.23608608,27.4963774 L0.801022785,27.4963774" id="Stroke-13"></path>
                        <path d="M5.23608608,21.9877358 L0.801022785,21.9877358" id="Stroke-15"></path>
                        <path d="M5.23608608,16.3656755 L0.801022785,16.3656755" id="Stroke-17"></path>
                        <path d="M5.23608608,10.8571623 L0.801022785,10.8571623" id="Stroke-19"></path>
                        <path d="M5.23608608,5.46193962 L0.801022785,5.46193962" id="Stroke-21"></path>
                        <path d="M5.23608608,60.2208 L0.801022785,60.2208" id="Stroke-23"></path>
                        <path d="M5.23608608,54.7121585 L0.801022785,54.7121585" id="Stroke-25"></path>
                    </g>
                    <path d="M89.1786,32.2686792 L63.2925494,57.9919245" id="Stroke-28"></path>
                    <path d="M74.9050557,58.1666717 L88.8480684,44.3113509" id="Stroke-29"></path>
                    <path d="M73.7257291,49.3693962 L73.8122354,57.0508302" id="Stroke-30"></path>
                    <path d="M73.9518076,49.5940528 L80.7870987,49.6697509" id="Stroke-31"></path>
                    <path d="M81.1078177,42.0337358 L81.1943241,49.7151698" id="Stroke-32"></path>
                    <path d="M81.4697241,42.393366 L88.3050152,42.4690642" id="Stroke-33"></path>
                    <path d="M89.5558709,33.473434 L63.6698203,7.75018868" id="Stroke-34"></path>
                    <path d="M75.2821975,7.57531321 L89.2252101,21.430634" id="Stroke-35"></path>
                    <path d="M74.103,16.3725887 L74.1895063,8.69115472" id="Stroke-36"></path>
                    <path d="M74.3290785,16.1479321 L81.1643696,16.072234" id="Stroke-37"></path>
                    <path d="M81.4850886,23.7082491 L81.5715949,16.0268151" id="Stroke-38"></path>
                    <path d="M81.8469949,23.3486189 L88.6822861,23.2729208" id="Stroke-39"></path>
                    <g id="Group-68" transform="translate(0.000000, 0.142785)">
                        <path d="M0,0.140233962 L4.42602532,0.140233962" id="Stroke-40"></path>
                        <path d="M0,65.4339623 L4.42731646,65.4339623" id="Stroke-42"></path>
                        <path d="M0,49.644234 L4.43506329,49.644234" id="Stroke-44"></path>
                        <path d="M0,44.1357208 L4.43506329,44.1357208" id="Stroke-46"></path>
                        <path d="M0,38.5136604 L4.43506329,38.5136604" id="Stroke-48"></path>
                        <path d="M0,33.0050189 L4.43506329,33.0050189" id="Stroke-50"></path>
                        <path d="M0,27.4963774 L4.43506329,27.4963774" id="Stroke-52"></path>
                        <path d="M0,21.9877358 L4.43506329,21.9877358" id="Stroke-54"></path>
                        <path d="M0,16.3656755 L4.43506329,16.3656755" id="Stroke-56"></path>
                        <path d="M0,10.8571623 L4.43506329,10.8571623" id="Stroke-58"></path>
                        <path d="M0,5.46193962 L4.43506329,5.46193962" id="Stroke-60"></path>
                        <polygon id="Stroke-62" points="4.42667089 0.140233962 4.43441772 0.147932075 4.43441772 64.1487623 4.42796203 65.4343472 96.3532025 65.4343472 96.3454557 64.1487623 96.3454557 0.147932075 96.3532025 0.140233962"></polygon>
                        <path d="M0,60.2208 L4.43506329,60.2208" id="Stroke-64"></path>
                        <path d="M0,54.7121585 L4.43506329,54.7121585" id="Stroke-66"></path>
                    </g>
                    <polygon id="Stroke-69" points="11.1451139 58.7100302 89.6360506 58.7100302 89.6360506 7.14935094 11.1451139 7.14935094"></polygon>
                    <path d="M11.6017899,32.2686792 L37.4878405,57.9919245" id="Stroke-70"></path>
                    <path d="M25.8753342,58.1666717 L11.9323215,44.3113509" id="Stroke-71"></path>
                    <path d="M27.0546608,49.3693962 L26.9681544,57.0508302" id="Stroke-72"></path>
                    <path d="M26.8285823,49.5940528 L19.9932911,49.6697509" id="Stroke-73"></path>
                    <path d="M19.6725722,42.0337358 L19.5860658,49.7151698" id="Stroke-74"></path>
                    <path d="M19.3106658,42.393366 L12.4753747,42.4690642" id="Stroke-75"></path>
                    <path d="M11.224519,33.473434 L37.1105696,7.75018868" id="Stroke-76"></path>
                    <path d="M25.4981924,7.57531321 L11.5551797,21.430634" id="Stroke-77"></path>
                    <path d="M26.6773899,16.3725887 L26.5908835,8.69115472" id="Stroke-78"></path>
                    <path d="M26.4513114,16.1479321 L19.6160203,16.072234" id="Stroke-79"></path>
                    <path d="M19.2953013,23.7082491 L19.2087949,16.0268151" id="Stroke-80"></path>
                    <path d="M18.9333949,23.3486189 L12.0981038,23.2729208" id="Stroke-81"></path>
                    <polygon id="Stroke-82" points="50.6302177 15.3115321 32.9377367 32.8927396 50.6302177 50.4739472 68.3226987 32.8927396"></polygon>
                    <polygon id="Stroke-83" points="50.6302177 25.1870566 42.8756354 32.8928679 50.6302177 40.5986792 58.3848 32.8928679"></polygon>
                </g>
            </g>
        </g>
    </g>
</svg>