<?xml version="1.0" encoding="UTF-8"?>
<svg width="92px" height="64px" viewBox="0 0 92 64" version="1.1" xmlns="http://www.w3.org/2000/svg" xmlns:xlink="http://www.w3.org/1999/xlink">
    <!-- Generator: Sketch 51.3 (57544) - http://www.bohemiancoding.com/sketch -->
    <title>Page 1</title>
    <desc>Created with Sketch.</desc>
    <defs></defs>
    <g id="Page-1" stroke="none" stroke-width="1" fill="none" fill-rule="evenodd" stroke-linecap="round" stroke-linejoin="round">
        <g id="select-category-ipad-horizontal" transform="translate(-627.000000, -238.000000)" stroke="#A5A5A5" stroke-width="2">
            <g id="Group-5" transform="translate(512.000000, 239.000000)">
                <g id="Page-1" transform="translate(116.000000, 0.000000)">
                    <path d="M45.0357397,25.23738 C54.9751485,25.23738 63.4491911,31.422928 66.7317505,40.1067725 L84.0943649,33.649496 C78.2758629,17.650768 63.0776244,6.23932046 45.2424237,6.23932046 C26.9566983,6.23932046 11.4519174,18.2389397 5.97711454,34.8739937 L23.1446564,40.655962 C26.2727834,31.6854842 34.8884859,25.23738 45.0357397,25.23738 L45.0357397,25.23738 Z" id="Stroke-1"></path>
                    <polyline id="Stroke-3" points="23.1440758 40.6560767 45.0363203 47.8138851 66.7311699 40.1068871"></polyline>
                    <path d="M44.9378551,55.2633716 C48.0961719,55.2633716 50.7877081,53.2225421 51.8315782,50.3573549 L57.3470212,52.4876141 C55.4984769,57.7662542 50.6704323,61.5314701 45.0028793,61.5314701 C39.1936664,61.5314701 34.2680856,57.57249 32.5286891,52.0840343 L37.9825913,50.1762026 C38.9765322,53.1354055 41.7145141,55.2633716 44.9378551,55.2633716 L44.9378551,55.2633716 Z" id="Stroke-5"></path>
                    <polyline id="Stroke-7" points="37.9824752 50.1762026 44.937739 47.8143437 51.8314621 50.3573549"></polyline>
                    <path d="M44.9379712,47.8143437 L45.0355075,25.2379532" id="Stroke-9"></path>
                    <path d="M29.4619867,31.1889205 L44.937739,47.8148023" id="Stroke-11"></path>
                    <path d="M44.9379712,47.8143437 L60.6029903,31.1884619" id="Stroke-13"></path>
                    <path d="M44.9854621,21.8815912 C56.4331993,21.8815912 66.1926305,29.0061501 69.9733215,39.0073615 L89.9705759,31.569799 C83.2707641,13.1438596 65.7653288,0 45.223497,0 C24.1637941,0 6.30537048,13.8203144 0.000348343764,32.9800351 L19.7723404,39.640248 C23.3753761,29.3076884 33.2985288,21.8815912 44.9854621,21.8815912 L44.9854621,21.8815912 Z" id="Stroke-15"></path>
                </g>
            </g>
        </g>
    </g>
</svg>