<?xml version="1.0" encoding="UTF-8"?>
<svg width="32px" height="33px" viewBox="0 0 32 33" version="1.1" xmlns="http://www.w3.org/2000/svg" xmlns:xlink="http://www.w3.org/1999/xlink">
    <!-- Generator: Sketch 51.3 (57544) - http://www.bohemiancoding.com/sketch -->
    <title>Page 1</title>
    <desc>Created with Sketch.</desc>
    <defs></defs>
    <g id="Page-1" stroke="none" stroke-width="1" fill="none" fill-rule="evenodd" stroke-linecap="round" stroke-linejoin="round">
        <g id="select-category-ipad-horizontal" transform="translate(-627.000000, -404.000000)" stroke="#A5A5A5" stroke-width="2">
            <g id="Group-5" transform="translate(512.000000, 239.000000)">
                <g id="Page-1" transform="translate(116.000000, 166.000000)">
                    <path d="M21.2045134,6.34428799 C22.1146203,6.96698364 22.9408464,7.7273501 23.6489404,8.6133853 L23.9781727,8.46371242 L26.5008885,7.30798364 C27.2103804,6.98251573 28.0463927,7.3002176 28.3686348,8.0168118 L29.4094561,10.3360354 C29.7344943,11.0596896 29.4122521,11.9111306 28.691576,12.2295385 C27.5864461,12.7159754 26.1863354,13.3450251 26.1947235,13.4007994 L25.9374889,13.5194081 C26.1793453,14.7132611 26.2247807,15.9191161 26.0905714,17.095319 L26.4072215,17.2146337 L29.0005371,18.1995095 C29.7296012,18.4762631 30.0986769,19.298052 29.8246662,20.0344143 L28.9376264,22.4178843 C28.6608197,23.1620126 27.8359916,23.5340768 27.1041314,23.2439091 C25.9822254,22.7991265 24.5520573,22.2435012 24.518505,22.2886855 L24.2326112,22.1806669 C23.5825348,23.1577766 22.7779778,24.0402818 21.8343186,24.7865282 L21.9678289,25.0802259 L23.1121031,27.6281948 C23.4343453,28.344789 23.1197922,29.18917 22.4103002,29.5146379 L20.1147617,30.5658781 C19.3975806,30.89417 18.5545783,30.5687021 18.2400252,29.8408118 C17.7577105,28.7246193 17.1355943,27.310493 17.0796738,27.318965 L16.9468625,27.0245613 C15.783016,27.2469526 14.6086845,27.2787228 13.4651092,27.1346979 L13.3560642,27.4206296 C13.3001436,27.4156876 12.7716944,28.8686441 12.3641734,30.0137828 C12.0978518,30.7614412 11.2772177,31.1426834 10.5411635,30.8631058 L9.37312299,30.4190292 L9.59051413,30.5199878 L8.42177464,30.0759112 C7.6857204,29.7963335 7.31664477,28.9639547 7.6046356,28.2240623 C8.04500993,27.0909257 8.59442934,25.6464412 8.5496929,25.612553 L8.65454393,25.3259153 C7.69970053,24.6728615 6.83712605,23.8680168 6.10666387,22.9255012 L5.81447899,23.058936 C5.77813063,23.0158698 4.38710695,23.6653936 3.29735523,24.1843066 C2.58506723,24.5224826 1.7385699,24.2061928 1.4135317,23.4825385 L0.372011459,21.1640209 C0.0504682964,20.4467207 0.36502139,19.6023398 1.07451337,19.2775778 L3.59722918,18.1218491 L3.88941406,17.9898263 C3.66643086,16.8009153 3.63707257,15.6014143 3.78456303,14.4336834 L3.49936822,14.3249588 C3.50426127,14.2684785 2.06570512,13.7347393 0.931915966,13.3231389 C0.190968678,13.0541513 -0.185796028,12.2253025 0.0910106952,11.4818801 L0.97805042,9.09841014 C1.25206112,8.36204783 2.06570512,7.98927764 2.79476929,8.26603126 L5.3880848,9.25090704 L5.70473491,9.37163375 C6.37018946,8.39734803 7.19152254,7.52119689 8.15195798,6.78342257 L8.03592284,6.52290704 C8.07856226,6.48619482 7.43547594,5.08195259 6.92170588,3.98058613 C6.58618258,3.26116791 6.90003667,2.40619689 7.61651872,2.07790497 L9.9120573,1.0266648 C10.6215493,0.701196894 11.4582605,1.01889876 11.7798037,1.73549296 L12.9240779,4.28416791 L13.0736654,4.61528385 C14.1843873,4.42042671 15.3020993,4.39783458 16.39255,4.53479938 L16.5617097,4.08860476 L17.5368243,1.4693294 C17.810835,0.732261077 18.624479,0.360196894 19.3542422,0.636950518 L20.5453499,1.08949917 L20.3279587,0.989246584 L21.5197655,1.44108923 C22.2488296,1.71854886 22.6179053,2.53963168 22.3438946,3.2767 L21.36878,5.89597536 L21.2045134,6.34428799 L21.2045134,6.34428799 Z" id="Stroke-1"></path>
                    <path d="M19.9571356,17.6522151 C20.9951608,14.8642048 19.5985451,11.7542565 16.8381669,10.7065464 C14.0777888,9.65813023 10.9986635,11.0687265 9.96133728,13.8567369 C8.92331207,16.6440412 10.3199278,19.7539894 13.080306,20.8024056 C15.8406841,21.8508217 18.9191104,20.4402255 19.9571356,17.6522151 L19.9571356,17.6522151 Z" id="Stroke-3"></path>
                </g>
            </g>
        </g>
    </g>
</svg>