<?xml version="1.0" encoding="UTF-8"?>
<svg width="72px" height="50px" viewBox="0 0 72 50" version="1.1" xmlns="http://www.w3.org/2000/svg" xmlns:xlink="http://www.w3.org/1999/xlink">
    <!-- Generator: Sketch 51.3 (57544) - http://www.bohemiancoding.com/sketch -->
    <title>Page 1</title>
    <desc>Created with Sketch.</desc>
    <defs>
        <polygon id="path-1" points="0.0357442904 28.5824176 71.5863238 28.5824176 71.5863238 0.598995011 0.0357442904 0.598995011"></polygon>
    </defs>
    <g id="Page-1" stroke="none" stroke-width="1" fill="none" fill-rule="evenodd">
        <g id="select-category-ipad-horizontal" transform="translate(-617.000000, -451.000000)">
            <g id="Group-5" transform="translate(512.000000, 239.000000)">
                <g id="Page-1" transform="translate(105.000000, 212.000000)">
                    <g id="Group-3" transform="translate(0.000000, 20.736008)">
                        <mask id="mask-2" fill="white">
                            <use xlink:href="#path-1"></use>
                        </mask>
                        <g id="Clip-2"></g>
                        <path d="M57.11733,2.38600663 C60.33033,2.49319069 64.08513,4.55648396 66.42963,6.59566082 C68.94693,8.78578856 70.45353,11.9236021 69.51213,15.2123665 C67.88943,20.8788308 61.20243,23.4128408 56.04813,24.7267388 C50.32953,26.1853353 44.37423,26.6381879 38.48823,26.763236 C32.29083,26.8954297 26.01423,26.6640908 19.89873,25.6047549 C13.89123,24.5641763 5.70843,22.5785914 2.70333,16.5986138 C1.26513,13.7376924 1.68993,10.5686169 3.73203,8.05515052 C6.03693,5.21834557 10.64043,2.51194791 14.42133,2.38600663 C15.57693,2.347599 15.58233,0.561197905 14.42133,0.599605529 C10.86813,0.718401202 6.89913,2.8290341 4.24413,5.02630745 C1.28673,7.47367696 -0.58887,11.0956052 0.22743,14.9488724 C1.56123,21.2370042 8.30223,24.465031 13.92993,26.0879764 C20.30193,27.9252899 27.06453,28.4370939 33.66873,28.5576759 C40.52043,28.682724 47.48733,28.3638514 54.21303,26.9802838 C60.51843,25.6842498 68.59863,23.0144733 71.02503,16.363702 C72.32193,12.809657 71.29413,9.09394275 68.73813,6.33305986 C66.02643,3.40336205 61.22673,0.736265213 57.11733,0.599605529 C55.95903,0.561197905 55.95993,2.347599 57.11733,2.38600663" id="Fill-1" fill="#A5A5A5" mask="url(#mask-2)"></path>
                    </g>
                    <path d="M40.0203,41.7598053 C32.2731,41.9759598 24.1569,41.3417874 16.7985,38.7836611 C13.9689,37.7993541 9.7794,36.0451082 8.3214,33.216342 C6.2847,29.2666092 10.9683,25.2204107 14.5134,24.6934224 C15.6546,24.5237143 15.1695,22.8025168 14.0346,22.9704385 C10.2744,23.5295821 6.9984,26.4521343 6.2037,30.205363 C5.3856,34.0684554 8.6508,36.6524845 11.6388,38.4058372 C15.5133,40.6790326 20.0691,41.7633781 24.4647,42.4984821 C29.6028,43.3577411 34.8138,43.6909049 40.0203,43.5462064 C41.1759,43.5140512 41.1813,41.7276501 40.0203,41.7598053" id="Fill-4" fill="#A5A5A5"></path>
                    <path d="M56.90151,24.0779179 C60.09291,25.0157785 63.69381,27.8758066 63.60471,31.5048805 C63.52821,34.6623444 61.69851,36.2397366 59.13801,37.7045855 C58.13451,38.2780202 59.03991,39.822364 60.04611,39.2471428 C63.34731,37.3598101 65.61531,34.8695669 65.43981,30.8287276 C65.26251,26.7351895 61.00551,23.4214155 57.38031,22.354934 C56.26701,22.0280226 55.79181,23.7518997 56.90151,24.0779179" id="Fill-6" fill="#A5A5A5"></path>
                    <path d="M16.31007,23.0733352 C15.45417,17.8088112 18.02367,11.8958236 21.43467,7.95234313 C24.89247,3.95616387 29.98107,1.85178338 35.26407,1.79461854 C39.98997,1.74281291 44.88687,3.03259451 48.44367,6.24811648 C52.61157,10.0165296 55.35837,15.8366244 55.38987,21.4459238 C55.39617,22.5954729 57.19617,22.5972593 57.18987,21.4459238 C57.15657,15.3882377 54.22797,9.05901861 49.71627,4.98423771 C45.75627,1.40786271 40.40397,-0.0596657967 35.13087,0.00821744505 C29.02167,0.0868190934 23.27787,2.72801312 19.49337,7.49502445 C16.01487,11.8770663 13.66137,17.9329661 14.57397,23.5485179 C14.75847,24.680203 16.49277,24.1996611 16.31007,23.0733352" id="Fill-8" fill="#A5A5A5"></path>
                    <path d="M50.5449,24.4060798 C51.075,23.1430942 51.7383,21.9676423 52.5789,20.88419 C53.4528,19.7587573 53.9064,19.6086996 54.6642,20.8556076 C55.5246,22.2749033 56.0475,24.0470132 56.5704,25.6163665 C57.0123,26.9400897 57.4812,28.3316962 57.6117,29.7277686 C57.7089,30.7647745 58.0635,30.6236488 57.0924,30.5495132 C55.5219,30.4316107 53.9784,30.2913782 52.4223,30.0350296 C51.2892,29.8474575 50.8014,31.568655 51.9435,31.7571203 C53.8029,32.0643813 56.1411,32.6780101 58.0041,32.3564579 C58.6638,32.2421282 59.0553,31.9554108 59.31,31.319452 C60.0714,29.4187213 58.7403,26.3773734 58.1256,24.6124091 C57.4938,22.7974256 56.5686,18.9048576 54.7209,17.9464534 C51.9885,16.5289441 49.536,22.1998744 48.8088,23.9308971 C48.3642,24.9911261 50.1048,25.453804 50.5449,24.4060798" id="Fill-10" fill="#A5A5A5"></path>
                    <path d="M14.26329,24.5537258 C15.52059,26.9680469 19.53819,28.148858 21.96189,28.9366609 C26.94699,30.5569267 32.45769,31.0562258 37.67589,31.0892742 C38.83419,31.097313 38.83599,29.310912 37.67589,29.3028731 C32.75829,29.2716111 27.70119,28.7848168 22.96989,27.3833852 C20.92239,26.7777952 16.86789,25.6684401 15.81759,23.6524865 C15.28569,22.630665 13.73139,23.5327976 14.26329,24.5537258" id="Fill-12" fill="#A5A5A5"></path>
                    <path d="M15.16329,20.8536425 C16.38549,23.2018668 20.18889,24.3112219 22.52889,25.122248 C27.06399,26.6933877 32.12469,27.1971529 36.89919,27.366861 C38.05749,27.407055 38.05569,25.6206539 36.89919,25.5804599 C32.46489,25.4232566 27.88479,24.9284235 23.63049,23.6091662 C21.62709,22.9883919 17.74539,21.9254832 16.71759,19.9524032 C16.18569,18.9305818 14.63139,19.8327143 15.16329,20.8536425" id="Fill-14" fill="#A5A5A5"></path>
                    <path d="M46.44612,25.8876315 C44.36352,24.9953242 40.20912,22.0629468 37.96542,23.8752507 C36.03582,25.4338856 36.79362,28.6717376 37.20582,30.6921573 C37.58292,32.5375096 38.30832,37.7939948 40.83102,38.1870031 C41.73372,38.3281288 42.38532,37.7609464 43.00722,37.2026961 C44.59122,35.7798276 45.99162,34.0747078 47.46222,32.5339368 C48.25782,31.6996875 46.98792,30.4340223 46.18872,31.2709512 C44.93052,32.5893152 43.72272,34.2194063 42.29172,35.3555573 C40.98132,36.3952428 40.72392,36.0906614 40.16592,34.5722205 C39.83472,33.6709811 39.55392,32.7500913 39.31272,31.8211628 C38.99682,30.6028372 37.83312,27.2354712 38.62962,26.1564849 C40.12362,24.1315992 43.80102,26.687046 45.53802,27.4301889 C46.59012,27.8812552 47.50812,26.3422706 46.44612,25.8876315" id="Fill-16" fill="#A5A5A5"></path>
                    <path d="M45.03996,26.6439044 C46.25136,28.1141125 46.34496,29.5539518 46.68336,31.3278481 C46.86786,32.2969707 47.37456,33.0669096 48.35376,33.3866754 C50.56056,34.106595 52.41006,32.2523107 52.61706,30.1818718 C52.83756,27.9640548 51.90696,24.9736194 49.80636,23.8660507 C48.92616,23.4015864 47.84706,23.328344 46.91286,23.6677602 C46.00026,23.9991376 45.61776,24.6806496 45.03996,25.3809189 C44.31186,26.263401 45.57816,27.5344254 46.31256,26.6439044 C47.05056,25.7498107 47.72466,24.7547853 49.04496,25.4827437 C50.47776,26.2741194 51.12126,28.904595 50.77386,30.3756963 C50.61456,31.0455967 50.00796,31.9200401 49.17636,31.7378272 C48.20706,31.5252454 48.40326,30.0496781 48.24306,29.247584 C47.95416,27.7916671 47.25126,26.5197496 46.31256,25.3809189 C45.57906,24.4903979 44.31186,25.7605291 45.03996,26.6439044" id="Fill-18" fill="#A5A5A5"></path>
                </g>
            </g>
        </g>
    </g>
</svg>