<?xml version="1.0" encoding="UTF-8"?>
<svg width="31px" height="27px" viewBox="0 0 31 27" version="1.1" xmlns="http://www.w3.org/2000/svg" xmlns:xlink="http://www.w3.org/1999/xlink">
    <!-- Generator: Sketch 51.3 (57544) - http://www.bohemiancoding.com/sketch -->
    <title>Page 1</title>
    <desc>Created with Sketch.</desc>
    <defs></defs>
    <g id="Page-1" stroke="none" stroke-width="1" fill="none" fill-rule="evenodd">
        <g id="select-category-ipad-horizontal" transform="translate(-573.000000, -470.000000)" stroke="#A5A5A5" stroke-width="2">
            <g id="Group-5" transform="translate(512.000000, 239.000000)">
                <path d="M71.0283156,251.614212 L75.669096,256.254993 C76.0342117,256.620108 76.625527,256.620108 76.9906427,256.254993 L88.5034661,244.74094 C91.4010342,241.844601 91.4010342,237.104244 88.5034661,234.206676 L88.4702738,234.172254 C85.5727057,231.275915 80.8323483,231.275915 77.9347803,234.172254 L76.1288713,235.979392 L75.9137358,235.764257 L74.4999881,234.350509 C71.6577406,231.508262 67.0071254,231.508262 64.1661073,234.350509 L64.1316856,234.383702 C61.2894381,237.225949 61.2894381,241.876564 64.1316856,244.718812 L75.7465447,256.332441 C76.1116604,256.697557 76.7029758,256.697557 77.0680915,256.332441 L86.7750059,246.625527" id="Page-1"></path>
            </g>
        </g>
    </g>
</svg>