<?xml version="1.0" encoding="UTF-8"?>
<svg width="28px" height="27px" viewBox="0 0 28 27" version="1.1" xmlns="http://www.w3.org/2000/svg" xmlns:xlink="http://www.w3.org/1999/xlink">
    <!-- Generator: Sketch 51.3 (57544) - http://www.bohemiancoding.com/sketch -->
    <title>Shape</title>
    <desc>Created with Sketch.</desc>
    <defs></defs>
    <g id="Page-1" stroke="none" stroke-width="1" fill="none" fill-rule="evenodd">
        <g id="Artboard-2" transform="translate(-618.000000, -1015.000000)" fill="#64D08F">
            <g id="Group-8" transform="translate(70.000000, 727.000000)">
                <g id="Group-5" transform="translate(1.000000, 89.000000)">
                    <g id="Group-7" transform="translate(202.000000, 36.000000)">
                        <g id="Group-3" transform="translate(344.712996, 153.123288)">
                            <path d="M20.2870036,9.87671233 C18.1510036,9.87671233 15.8130036,11.0685379 14.2870036,12.8767123 C12.7610036,11.0685379 10.4230036,9.87671233 8.28700361,9.87671233 C3.67500361,9.87671233 0.28700361,13.4374753 0.28700361,17.8767123 C0.28700361,23.5312082 5.04700361,28.0630884 12.2870036,34.8767123 L14.2870036,36.8767123 L16.2870036,34.8767123 C23.5270036,28.0630884 28.2870036,23.5312082 28.2870036,17.8767123 C28.2870036,13.4374753 24.8990036,9.87671233 20.2870036,9.87671233 L20.2870036,9.87671233 Z M14.2870036,32.8767123 L14.2870036,32.8767123 L14.2870036,32.8767123 C7.60450361,26.4151739 3.28700361,22.2393497 3.28700361,17.8767123 C3.28700361,15.0745145 5.34950361,12.8767123 8.28700361,12.8767123 C10.2170036,12.8767123 12.2795036,14.3272618 13.2870036,15.8767123 L15.2870036,15.8767123 C16.2945036,14.3272618 18.3570036,12.8767123 20.2870036,12.8767123 C23.2245036,12.8767123 25.2870036,15.0745145 25.2870036,17.8767123 C25.2870036,22.2393497 20.9695036,26.4151739 14.2870036,32.8767123 L14.2870036,32.8767123 Z" id="Shape"></path>
                        </g>
                    </g>
                </g>
            </g>
        </g>
    </g>
</svg>