<?xml version="1.0" encoding="UTF-8"?>
<svg width="43px" height="38px" viewBox="0 0 43 38" version="1.1" xmlns="http://www.w3.org/2000/svg" xmlns:xlink="http://www.w3.org/1999/xlink">
    <!-- Generator: Sketch 51.3 (57544) - http://www.bohemiancoding.com/sketch -->
    <title>Page 1</title>
    <desc>Created with Sketch.</desc>
    <defs></defs>
    <g id="Page-1" stroke="none" stroke-width="1" fill="none" fill-rule="evenodd" stroke-linecap="round" stroke-linejoin="round">
        <g id="select-category-ipad-horizontal" transform="translate(-830.000000, -294.000000)" stroke="#A5A5A5" stroke-width="2">
            <g id="Group-5" transform="translate(512.000000, 239.000000)">
                <g id="Page-1" transform="translate(319.000000, 56.000000)">
                    <path d="M0,29.8587706 C0,29.8878882 0.00525641026,29.9127706 0.0105128205,29.9408294 C0.12825641,30.5321824 0.0178717949,35.8284176 6.84857692,35.8294765 C13.4269744,35.8300059 20.0053718,34.7320059 27.2150641,19.1191235 C27.2150641,19.1191235 31.7639615,8.04435882 40.5169359,7.79077059 C40.7356026,7.78441765 40.9122179,7.61024118 40.9122179,7.38947647 L40.9122179,6.27347647 C40.9122179,6.04582941 40.7303462,5.86265294 40.5043205,5.86900588 C38.6540641,5.92088824 30.8714231,6.6663 24.6751667,15.2427706 C24.6068333,15.3364765 21.2390513,20.0175353 21.1617821,20.1048882 C19.6889359,21.7667118 17.5679744,23.9028882 15.8838205,24.6456529 C15.6167949,24.7631824 15.3161282,24.5757706 15.3129744,24.2824765 L15.2341282,17.4292412 C15.2315,17.2079471 15.0527821,17.0300647 14.8330641,17.0300647 L0.401064103,17.0300647 C0.179769231,17.0300647 0,17.2105941 0,17.4340059 L0,29.8587706 L0,29.8587706 Z" id="Stroke-1"></path>
                    <path d="M21.1615718,20.1047824 L24.9619564,22.4754882" id="Stroke-3"></path>
                    <path d="M24.6749564,15.2428235 L28.2414308,17.0602941" id="Stroke-5"></path>
                    <path d="M0,20.4788118 L15.2693462,20.4788118" id="Stroke-7"></path>
                    <path d="M6.29418333,6.58731176 C6.57172179,6.24584118 6.8114141,5.87472353 7.01010641,5.48137059 C7.37069615,4.76560588 7.71867051,4.04984118 7.78017051,3.25837059 C7.88950385,1.84060588 6.91654231,0.412252941 5.56406795,0.00407647059 C6.05396538,-0.0149823529 6.54543974,0.0353117647 7.02167051,0.150723529 L7.21668333,0.197311765 C8.00304231,0.385252941 8.76101667,0.706605882 9.39651667,1.20954706 C9.70086282,1.4499 9.97682436,1.72307647 10.2091577,2.03542941 C10.7510936,2.7639 11.0244269,3.73484118 10.7679141,4.60837059 C10.5692218,5.2839 10.0877346,5.82972353 9.71032436,6.42319412 C9.55683718,6.66513529 9.42017051,6.91766471 9.30190128,7.17813529 L9.27561923,7.21042941 C8.99808077,7.5519 8.75786282,7.92301765 8.55969615,8.31637059 C8.19910641,9.03213529 7.85060641,9.7479 7.78963205,10.5393706 C7.68029872,11.9571353 8.65273462,13.3854882 10.005209,13.7936647 C9.51583718,13.8132529 9.02383718,13.7629588 8.54760641,13.6470176 L8.35311923,13.6004294 C7.56676026,13.4130176 6.80826026,13.0911353 6.1732859,12.5887235 C5.86893974,12.3478412 5.59245256,12.0746647 5.36011923,11.7623118 C4.81870897,11.0338412 4.54537564,10.0629 4.80188846,9.1899 C5.00005513,8.51384118 5.48206795,7.96801765 5.85947821,7.37454706 C6.01296538,7.13260588 6.14910641,6.88007647 6.26790128,6.61960588 L6.29418333,6.58731176 L6.29418333,6.58731176 Z" id="Stroke-9"></path>
                    <path d="M25.7063692,13.8119824 C26.6667154,14.3477471 27.6270615,14.8835118 28.5868821,15.4187471" id="Stroke-11"></path>
                </g>
            </g>
        </g>
    </g>
</svg>