<?xml version="1.0" encoding="UTF-8"?>
<svg width="84px" height="70px" viewBox="0 0 84 70" version="1.1" xmlns="http://www.w3.org/2000/svg" xmlns:xlink="http://www.w3.org/1999/xlink">
    <!-- Generator: Sketch 51.3 (57544) - http://www.bohemiancoding.com/sketch -->
    <title>Page 1</title>
    <desc>Created with Sketch.</desc>
    <defs></defs>
    <g id="Page-1" stroke="none" stroke-width="1" fill="none" fill-rule="evenodd">
        <g id="select-category-ipad-horizontal" transform="translate(-602.000000, -318.000000)" stroke="#A5A5A5" stroke-width="2">
            <g id="Group-5" transform="translate(512.000000, 239.000000)">
                <g id="Page-1" transform="translate(91.000000, 80.000000)">
                    <path d="M25.1267974,26.8955139 L25.1267974,2.10556378 C25.1267974,0.9426255 26.0634897,-0.00021163572 27.2177974,-0.00021163572 L79.2478487,-0.00021163572 C80.4032077,-0.00021163572 81.3399,0.9426255 81.3399,2.10556378 L81.3399,38.3016211 C81.3399,39.4645594 80.4032077,40.4063383 79.2478487,40.4063383 L56.2090026,40.4063383" id="Stroke-1"></path>
                    <path d="M53.1678538,4.04023172 L53.1678538,27.5889384" id="Stroke-3" stroke-linecap="round"></path>
                    <path d="M70.2755769,26.0188129 L76.2605256,26.0188129" id="Stroke-5" stroke-linecap="round"></path>
                    <path d="M60.8140385,30.3434831 L75.9241154,30.3434831" id="Stroke-7" stroke-linecap="round"></path>
                    <path d="M60.8140385,34.8142877 L75.9241154,34.8142877" id="Stroke-9" stroke-linecap="round"></path>
                    <path d="M31.3472333,5.80992962 L37.3321821,5.80992962" id="Stroke-11" stroke-linecap="round"></path>
                    <path d="M31.3472333,10.1347056 L47.794541,10.1347056" id="Stroke-13" stroke-linecap="round"></path>
                    <path d="M31.3472333,14.6054044 L47.794541,14.6054044" id="Stroke-15" stroke-linecap="round"></path>
                    <path d="M74.4302436,16.919641 L67.0397308,16.919641 C65.8843718,16.919641 64.9476795,15.9768038 64.9476795,14.8149237 L64.9476795,7.37486996 C64.9476795,6.21298985 65.8843718,5.27015271 67.0397308,5.27015271 L74.4302436,5.27015271 C75.5856026,5.27015271 76.5212436,6.21298985 76.5212436,7.37486996 L76.5212436,14.8149237 C76.5212436,15.9768038 75.5856026,16.919641 74.4302436,16.919641 L74.4302436,16.919641 Z" id="Stroke-17"></path>
                    <path d="M24.9692103,27.5892558 L54.1212615,27.5892558 C55.2766205,27.5892558 56.2122615,28.5320929 56.2122615,29.6939731 L56.2122615,65.8910885 C56.2122615,67.0540268 55.2766205,67.9958058 54.1212615,67.9958058 L2.09121026,67.9958058 C0.935851282,67.9958058 0.00021025641,67.0540268 0.00021025641,65.8910885 L0.00021025641,29.6939731 C0.00021025641,28.5320929 0.935851282,27.5892558 2.09121026,27.5892558 L24.9692103,27.5892558" id="Stroke-19"></path>
                    <path d="M12.4676795,64.0720795 L20.3975,51.2681184 C20.5888333,50.9591303 21.0335256,50.9527812 21.2353718,51.2554203 L29.7234231,64.0720795 L29.7707308,64.0720795 L40.275141,47.1105347 C40.4664744,46.8015465 40.9111667,46.7951975 41.1130128,47.0978365 L52.3543718,64.0720795" id="Stroke-21" stroke-linecap="round"></path>
                    <path d="M13.5506051,36.5414468 C13.5506051,38.8387525 11.7003487,40.7022051 9.4169641,40.7022051 C7.13463077,40.7022051 5.28332308,38.8387525 5.28332308,36.5414468 C5.28332308,34.244141 7.13463077,32.3806885 9.4169641,32.3806885 C11.7003487,32.3806885 13.5506051,34.244141 13.5506051,36.5414468 L13.5506051,36.5414468 Z" id="Stroke-23" stroke-linecap="round"></path>
                    <path d="M35.9851744,54.0375834 L38.0036359,56.9729709 C38.0204564,56.997309 38.0562,56.997309 38.0730205,56.9729709 L40.4384051,53.5180178 C40.4457641,53.5063778 40.4583795,53.4989705 40.4720462,53.4989705 L45.3520974,53.4989705" id="Stroke-25" stroke-linecap="round"></path>
                    <path d="M16.8528923,56.9915948 L24.9677385,56.892126" id="Stroke-27" stroke-linecap="round"></path>
                    <path d="M34.1785462,36.5910754 L51.4521615,36.5910754" id="Stroke-29" stroke-linecap="round"></path>
                    <path d="M25.2640949,36.5414468 L30.6540179,36.5414468" id="Stroke-31" stroke-linecap="round"></path>
                    <path d="M39.5708872,32.9399359 L50.8448359,32.9399359" id="Stroke-33" stroke-linecap="round"></path>
                </g>
            </g>
        </g>
    </g>
</svg>