<?xml version="1.0" encoding="UTF-8"?>
<svg width="46px" height="46px" viewBox="0 0 46 46" version="1.1" xmlns="http://www.w3.org/2000/svg" xmlns:xlink="http://www.w3.org/1999/xlink">
    <!-- Generator: Sketch 51.3 (57544) - http://www.bohemiancoding.com/sketch -->
    <title>Page 1</title>
    <desc>Created with Sketch.</desc>
    <defs></defs>
    <g id="Page-1" stroke="none" stroke-width="1" fill="none" fill-rule="evenodd" stroke-linecap="round" stroke-linejoin="round">
        <g id="select-category-ipad-horizontal" transform="translate(-770.000000, -324.000000)" stroke="#A5A5A5" stroke-width="2">
            <g id="Group-5" transform="translate(512.000000, 239.000000)">
                <g id="Page-1" transform="translate(259.000000, 86.000000)">
                    <path d="M43.4365179,21.7715385 C43.4071846,33.7660513 33.6594923,43.4657949 21.6649795,43.4364615 C9.67046667,43.4071282 -0.0292769231,33.6594359 5.64102567e-05,21.6649231 C0.0293897436,9.67041026 9.77708205,-0.0293333333 21.7715949,1.91299965e-13 C33.7661077,0.0293333333 43.4658513,9.77702564 43.4365179,21.7715385 L43.4365179,21.7715385 Z" id="Stroke-1"></path>
                    <path d="M40.5536718,21.8567744 C40.5282872,32.2593897 32.0746462,40.6712872 21.6720308,40.6459026 C11.2694154,40.6205179 2.85751795,32.1668769 2.88290256,21.7642615 C2.90828718,11.3622103 11.3619282,2.94974872 21.7645436,2.97513333 C32.167159,3.00051795 40.5790564,11.454159 40.5536718,21.8567744 L40.5536718,21.8567744 Z" id="Stroke-3" stroke-dasharray="8"></path>
                    <path d="M17.5256513,15.0148872 C17.5256513,12.8752462 19.2602667,11.1406308 21.3999077,11.1406308 C23.5395487,11.1406308 25.2741641,12.8752462 25.2741641,15.0148872" id="Stroke-5"></path>
                    <path d="M17.5256513,15.0148872 L17.5256513,26.6218615 C17.5256513,26.937759 17.5358051,27.2542205 17.5826256,27.5661692 C17.6971385,28.3305282 17.7411385,30.4182718 14.9426256,30.9428872 L26.9963692,30.9428872 C26.9963692,30.9428872 29.1489846,30.5124769 28.9334974,27.9294513" id="Stroke-7"></path>
                    <path d="M14.9427949,20.826441 L21.9455641,20.826441" id="Stroke-9"></path>
                </g>
            </g>
        </g>
    </g>
</svg>