<?xml version="1.0" encoding="UTF-8"?>
<svg width="80px" height="81px" viewBox="0 0 80 81" version="1.1" xmlns="http://www.w3.org/2000/svg" xmlns:xlink="http://www.w3.org/1999/xlink">
    <!-- Generator: Sketch 51.3 (57544) - http://www.bohemiancoding.com/sketch -->
    <title>Page 1</title>
    <desc>Created with Sketch.</desc>
    <defs></defs>
    <g id="Page-1" stroke="none" stroke-width="1" fill="none" fill-rule="evenodd">
        <g id="select-category-ipad-horizontal" transform="translate(-796.000000, -336.000000)">
            <g id="Group-5" transform="translate(512.000000, 239.000000)">
                <g id="Page-1" transform="translate(285.000000, 98.000000)">
                    <path d="M34.458,44.4623 L28.963,48.9813 C21.656,54.6403 26.177,61.6363 24.946,62.4293 C23.715,63.2223 20.985,62.0703 20.985,62.0703 L9.654,78.9383 L2.245,69.9293 L0,67.1993 L15.856,54.1603 C15.856,54.1603 20.534,57.6213 22.417,48.7653 C22.417,48.7653 27.297,40.2113 32.112,37.7093 C32.112,37.7093 35.162,39.7463 34.458,44.4623 L34.458,44.4623 Z" id="Stroke-1" stroke="#A5A5A5" stroke-width="2" stroke-linecap="round" stroke-linejoin="round"></path>
                    <polyline id="Stroke-3" stroke="#A5A5A5" stroke-width="2" stroke-linecap="round" stroke-linejoin="round" points="32.1077 37.7034 41.7317 29.7894 74.7537 2.6344 77.2207 5.6344 42.2987 34.3524"></polyline>
                    <polyline id="Stroke-5" stroke="#A5A5A5" stroke-width="2" stroke-linecap="round" stroke-linejoin="round" points="51.9576 26.4574 53.7936 28.6904 42.7226 37.7954"></polyline>
                    <polyline id="Stroke-7" stroke="#A5A5A5" stroke-width="2" stroke-linecap="round" stroke-linejoin="round" points="70.0278 5.6206 68.3028 3.5236 72.5878 -0.0004 74.3118 2.0976"></polyline>
                    <polyline id="Stroke-9" stroke="#A5A5A5" stroke-width="2" stroke-linecap="round" stroke-linejoin="round" points="39.947 31.2663 40.949 35.6383 42.659 37.7183 34.458 44.4623"></polyline>
                    <path d="M29.6638,48.7514 C31.3678,51.5144 34.0518,53.7354 37.0448,51.1884 C39.8198,48.8254 41.0108,44.9364 39.0888,41.6834 C38.4338,40.5754 36.7048,41.5804 37.3618,42.6924 C38.6238,44.8284 38.0198,47.2024 36.4348,48.9874 C35.6268,49.8954 34.5588,50.7544 33.3188,50.0604 C32.4628,49.5804 31.8878,48.5474 31.3908,47.7424 C30.7158,46.6484 28.9858,47.6514 29.6638,48.7514" id="Fill-11" fill="#A5A5A5"></path>
                    <path d="M33.764,45.8061 L34.44,48.5801" id="Stroke-13" stroke="#A5A5A5" stroke-width="2" stroke-linecap="round" stroke-linejoin="round"></path>
                </g>
            </g>
        </g>
    </g>
</svg>