<?xml version="1.0" encoding="UTF-8"?>
<svg width="47px" height="49px" viewBox="0 0 47 49" version="1.1" xmlns="http://www.w3.org/2000/svg" xmlns:xlink="http://www.w3.org/1999/xlink">
    <!-- Generator: Sketch 51.3 (57544) - http://www.bohemiancoding.com/sketch -->
    <title>Page 1</title>
    <desc>Created with Sketch.</desc>
    <defs></defs>
    <g id="Page-1" stroke="none" stroke-width="1" fill="none" fill-rule="evenodd">
        <g id="select-category-ipad-horizontal" transform="translate(-830.000000, -394.000000)" fill="#A5A5A5" stroke="#979797" stroke-width="0.5">
            <g id="Group-5" transform="translate(512.000000, 239.000000)">
                <g id="Page-1" transform="translate(319.000000, 155.000000)">
                    <path d="M34.3830597,18.6790605 C38.1308354,25.0624281 37.8971284,33.1950551 33.5204919,39.2001146 C29.5617939,44.6333903 22.7589005,47.4357957 16.2157541,46.3022011 C10.0098228,45.2271146 4.68989512,40.7765092 2.45503074,34.7621416 C0.12121519,28.4844876 1.43166727,21.1789524 5.80895479,16.1678659 C11.2616854,9.92544973 20.2024448,8.33509297 27.4792622,12.11352 C28.224651,12.5004714 28.8841085,11.3535795 28.1361157,10.9652984 C21.2258083,7.3770227 12.8566221,8.17552541 6.87267993,13.2703849 C1.46877396,17.8719146 -1.01672333,25.3117524 0.412209765,32.3353849 C1.82747197,39.2951903 7.06602532,45.0582389 13.7309078,47.0767686 C20.4765136,49.1192335 27.9759711,47.1219795 32.8909801,41.9865632 C39.025953,35.5766011 39.9952839,25.6528281 35.5073273,18.0082119 C35.0770199,17.2748659 33.9507993,17.9423903 34.3830597,18.6790605" id="Fill-1"></path>
                    <path d="M30.186358,19.400173 C33.7225606,24.1838757 34.2244774,30.6835946 31.1055624,35.8309784 C28.3121447,40.4411514 23.0957251,43.0554 17.8187631,42.5514324 C12.5248752,42.0454703 7.82860036,38.3248865 6.00841953,33.2273676 C4.17977577,28.1065784 5.38997468,22.2285081 9.11236166,18.3157784 C13.8203544,13.3665243 21.2722893,12.6790541 26.9261772,16.3451189 C27.6357613,16.8052054 28.2893599,15.6549892 27.5830307,15.1968973 C22.151132,11.6744432 15.0644051,11.8173892 9.91048101,15.8271892 C5.31185533,19.4054919 3.06917902,25.4098865 4.11988427,31.2108324 C5.16538156,36.9805297 9.51272333,41.7841784 15.0344593,43.3658919 C20.7475877,45.0021243 27.0563761,43.0334595 30.8790163,38.3986865 C35.5147486,32.7779189 35.6286727,24.570827 31.3106257,18.7293243 C30.8119638,18.0544865 29.6811863,18.7166919 30.186358,19.400173" id="Fill-3"></path>
                    <path d="M28.3592116,2.34599027 C27.6125208,8.05119568 26.86583,13.7557362 26.1197902,19.4609416 C26.0768246,19.7867254 26.4537505,20.1690227 26.7707848,20.1258065 C32.3563183,19.3632065 37.9425027,18.6006065 43.5286872,17.8386714 C44.0566438,17.7662011 44.4257577,17.1498714 43.9889403,16.703747 L29.4704593,1.87593081 C28.8774033,1.27023892 27.9562459,2.20969297 28.549953,2.81604973 C33.3894467,7.75865514 38.2289403,12.7012605 43.068434,17.6438659 C43.2214177,17.2655578 43.3750524,16.8872497 43.5286872,16.5089416 C37.9425027,17.2708768 32.3563183,18.0334768 26.7707848,18.7960768 C26.987566,19.0174768 27.2043472,19.2395416 27.4217794,19.4609416 C28.1678192,13.7557362 28.9145099,8.05119568 29.6612007,2.34599027 C29.7718698,1.50028216 28.4685787,1.50892541 28.3592116,2.34599027" id="Fill-5"></path>
                    <path d="M44.1794864,17.1736735 C44.2953635,15.9935384 44.4112405,14.8134032 44.5271175,13.6332681 C44.6169548,12.7217384 45.0296854,11.3328357 44.8428499,10.4199762 C44.6547125,9.49647892 43.3566293,8.62683568 42.7394864,7.99587892 C41.948528,7.18873297 41.1582206,6.38158703 40.3679132,5.57377622 L37.99634,3.15233838 C37.3694322,2.51140865 36.5329042,1.21159784 35.6228137,1.00349514 C34.7400651,0.801376216 33.3625606,1.23486811 32.476557,1.32595459 C31.3210416,1.44430054 30.1655262,1.56264649 29.0100108,1.68099243 C28.4722893,1.73617622 28.1220542,2.37910054 28.5497577,2.81591676 C33.3892514,7.75852216 38.228745,12.7011276 43.0682387,17.643733 C43.6612948,18.2494249 44.5824521,17.3099708 43.988745,16.7036141 L29.470264,1.87579784 C29.3172803,2.25410595 29.1636456,2.63241405 29.0100108,3.01072216 C30.0587631,2.90367892 31.1075154,2.79597081 32.1569186,2.6882627 C33.2206438,2.57922486 34.5245859,2.66632216 35.5440434,2.34120324 C35.5472984,2.33987351 35.109179,1.91236541 35.2999204,2.27804108 C35.3708788,2.41566811 35.5583653,2.5426573 35.6683834,2.65501946 C36.2139168,3.21217622 36.7594503,3.76933297 37.3049837,4.32648973 C38.0191248,5.05584649 38.7332658,5.78520324 39.4474069,6.51456 C40.1615479,7.24325189 40.875689,7.97260865 41.589179,8.70196541 C42.1073707,9.23119784 42.6255624,9.76043027 43.1437541,10.2896627 C43.275255,10.4239654 43.4308427,10.661987 43.5948933,10.7504141 C43.9535913,10.9438897 43.5336998,10.4984303 43.5330488,10.5004249 C43.2153635,11.5336249 43.2993418,12.8806411 43.1932297,13.9603816 C43.0877685,15.0314789 42.9829584,16.1025762 42.8774973,17.1736735 C42.79417,18.0247005 44.0961591,18.0187168 44.1794864,17.1736735" id="Fill-7"></path>
                    <path d="M40.5908788,7.65221027 C40.1905172,9.3150373 39.4067197,11.2138914 39.3227414,12.9166103 C39.2914937,13.5455724 39.0460687,13.0449292 39.4828861,12.9604914 C39.3103725,12.9943995 39.1398119,13.1273724 38.9738083,13.1832211 C38.2433924,13.4305508 37.5344593,13.8121832 36.8274792,14.1213454 L26.8275515,18.4934968 C26.0593779,18.8292535 26.7220904,19.9748157 27.4844051,19.6417184 C30.9782929,18.1145238 34.4721808,16.5866643 37.9654177,15.0594697 C38.8436094,14.6758427 40.1377866,14.4438049 40.5225244,13.5003616 C41.2073707,11.8235724 41.4202459,9.77445892 41.8466474,8.00591838 C42.0465027,7.1748373 40.7913852,6.82046432 40.5908788,7.65221027" id="Fill-9"></path>
                    <path d="M38.205179,3.84107189 C36.411038,4.33240703 34.4424304,4.64622324 32.7172948,5.34300162 C31.7128101,5.74856919 31.4556673,7.13880162 31.0344738,8.10086108 C29.4258662,11.7755692 27.8172586,15.4502773 26.208651,19.1256503 C25.8694828,19.9002178 26.9911465,20.5770503 27.3329186,19.7964989 C28.8699168,16.2840178 30.407566,12.7715368 31.9452152,9.25972054 C32.2739675,8.50842324 32.6671682,7.75712595 32.9418879,6.98255838 C33.0017794,6.81301784 33.1274213,6.6434773 33.167783,6.46662324 C33.1358843,6.60624486 32.6040217,6.58230973 33.1306763,6.60690973 C34.0707125,6.65145568 35.3870235,5.98925027 36.292557,5.74125568 C37.0457577,5.53514757 37.7983074,5.32970432 38.5515081,5.12359622 C39.3600434,4.90219622 39.0169693,3.61900703 38.205179,3.84107189" id="Fill-11"></path>
                </g>
            </g>
        </g>
    </g>
</svg>