<?xml version="1.0" encoding="UTF-8"?>
<svg width="66px" height="59px" viewBox="0 0 66 59" version="1.1" xmlns="http://www.w3.org/2000/svg" xmlns:xlink="http://www.w3.org/1999/xlink">
    <!-- Generator: Sketch 51.3 (57544) - http://www.bohemiancoding.com/sketch -->
    <title>Page 1</title>
    <desc>Created with Sketch.</desc>
    <defs></defs>
    <g id="Page-1" stroke="none" stroke-width="1" fill="none" fill-rule="evenodd">
        <g id="select-category-ipad-horizontal" transform="translate(-544.000000, -393.000000)" stroke="#A5A5A5" stroke-width="2">
            <g id="Group-5" transform="translate(512.000000, 239.000000)">
                <g id="Page-1" transform="translate(33.000000, 155.000000)">
                    <path d="M13.0920727,51.2069114 L13.0920727,56.0023788 C13.0920727,56.4940315 13.4943584,56.8926244 13.9905662,56.8926244 L15.2813714,56.8926244 C15.7784104,56.8926244 16.1806961,56.4940315 16.1806961,56.0023788 L16.1806961,51.2069114" id="Stroke-1" stroke-linecap="round"></path>
                    <path d="M15.9080727,33.4349406 C15.3279169,29.8591345 14.294774,27.3835763 13.0255792,25.5075546 C11.035761,22.5658734 7.69944935,20.8792656 4.19856623,20.8792656 L4.1860987,20.8792656 C1.18973506,20.8792656 -0.701174026,23.3235293 0.245527273,26.2273276 C0.291241558,26.3681528 0.342774026,26.5032132 0.3968,26.6316853 C0.949527273,27.9337004 2.17300779,28.8082987 3.54859221,29.0026539 L4.26838442,29.1039492 C7.9729039,29.0158306 7.79087792,31.1504436 7.80916364,33.2364677 C7.84573506,37.4093397 6.84583896,42.5490463 6.26152727,45.184371 C6.01134545,46.31509 6.23077403,47.4952213 6.86744935,48.4538207 L7.0793974,48.7741773 C7.84241039,49.9238377 9.11326753,50.6123163 10.4730597,50.6123163 L32.7691636,50.6123163" id="Stroke-3"></path>
                    <path d="M31.0373403,50.6123163 L53.3334442,50.6123163 C54.6932364,50.6123163 55.9640935,49.9238377 56.7271065,48.7741773 L56.9390545,48.4538207 C57.5757299,47.4952213 57.7959896,46.31509 57.5449766,45.184371 C56.9606649,42.5490463 55.9616,37.4093397 55.9973403,33.2364677 C56.015626,31.1504436 55.8685091,28.8099458 59.5381195,29.1039492 L60.2579117,29.0026539 C61.6334961,28.8082987 62.8569766,27.9337004 63.4097039,26.6316853 C63.464561,26.5032132 63.5152623,26.3681528 63.5609766,26.2273276 C64.5076779,23.3235293 62.6167688,20.8792656 59.6204052,20.8792656 L59.6079377,20.8792656 C56.1070545,20.8792656 52.7707429,22.5658734 50.7809247,25.5075546 C49.4851325,27.4231062 48.4345351,29.9645475 47.8626909,33.6638845" id="Stroke-5"></path>
                    <path d="M9.37608312,21.4557429 L9.37608312,21.4557429 C9.37608312,9.65525313 19.5130182,8.23538958e-05 31.9032519,8.23538958e-05 L31.9032519,8.23538958e-05 C44.2934857,8.23538958e-05 54.4304208,9.65525313 54.4304208,21.4557429 L54.4304208,21.4557429" id="Stroke-7"></path>
                    <path d="M49.3203948,41.124818 L14.4861091,41.124818 C13.7197714,41.124818 13.092239,40.5030461 13.092239,39.7437432 L13.092239,35.4036929 C13.092239,34.64439 13.7197714,34.022618 14.4861091,34.022618 L49.3203948,34.022618 C50.0875636,34.022618 50.7142649,34.64439 50.7142649,35.4036929 L50.7142649,39.7437432 C50.7142649,40.5030461 50.0875636,41.124818 49.3203948,41.124818 L49.3203948,41.124818 Z" id="Stroke-9"></path>
                    <path d="M21.801226,9.99191586 L21.801226,15.2222118" id="Stroke-11" stroke-linecap="round"></path>
                    <path d="M19.1617662,12.6071462 L24.4405195,12.6071462" id="Stroke-13" stroke-linecap="round"></path>
                    <path d="M42.0054442,9.99191586 L42.0054442,15.2222118" id="Stroke-15" stroke-linecap="round"></path>
                    <path d="M39.3660675,12.6071462 L44.6448208,12.6071462" id="Stroke-17" stroke-linecap="round"></path>
                    <path d="M21.801226,21.432272 L21.801226,26.662568" id="Stroke-19" stroke-linecap="round"></path>
                    <path d="M19.1617662,24.04742 L24.4405195,24.04742" id="Stroke-21" stroke-linecap="round"></path>
                    <path d="M42.0054442,21.432272 L42.0054442,26.662568" id="Stroke-23" stroke-linecap="round"></path>
                    <path d="M39.3660675,24.04742 L44.6448208,24.04742" id="Stroke-25" stroke-linecap="round"></path>
                    <path d="M47.6263065,51.2069114 L47.6263065,56.0023788 C47.6263065,56.4940315 48.0285922,56.8926244 48.5248,56.8926244 L49.8156052,56.8926244 C50.3126442,56.8926244 50.7149299,56.4940315 50.7149299,56.0023788 L50.7149299,51.2069114" id="Stroke-27" stroke-linecap="round"></path>
                </g>
            </g>
        </g>
    </g>
</svg>