<?xml version="1.0" encoding="UTF-8"?>
<svg width="119px" height="77px" viewBox="0 0 119 77" version="1.1" xmlns="http://www.w3.org/2000/svg" xmlns:xlink="http://www.w3.org/1999/xlink">
    <!-- Generator: Sketch 51.3 (57544) - http://www.bohemiancoding.com/sketch -->
    <title>Page 1</title>
    <desc>Created with Sketch.</desc>
    <defs></defs>
    <g id="Page-1" stroke="none" stroke-width="1" fill="none" fill-rule="evenodd" stroke-linecap="round" stroke-linejoin="round">
        <g id="select-category-ipad-horizontal" transform="translate(-700.000000, -448.000000)" stroke="#A5A5A5" stroke-width="2">
            <g id="Group-5" transform="translate(512.000000, 239.000000)">
                <g id="Page-1" transform="translate(244.682656, 244.324695) rotate(18.000000) translate(-244.682656, -244.324695) translate(195.182656, 193.824695)">
                    <polygon id="Stroke-1" points="46.5912801 59.1495015 40.576574 53.1554523 89.4068597 7.50132776 92.5072762 10.5910963"></polygon>
                    <path d="M83.7598181,19.8410907 L80.1035703,16.1973999" id="Stroke-2"></path>
                    <path d="M87.8467076,15.5189721 L84.6035088,12.2869116" id="Stroke-3"></path>
                    <g id="Group-44" transform="translate(0.000000, 0.551890)">
                        <path d="M60.810234,32.1661162 C60.810234,32.1661162 45.3476714,21.7051155 38.2238525,34.9967101 C36.1241872,38.9160916 33.5477308,40.8154353 30.9585261,41.5459521 C30.9585261,41.5459521 38.8995189,43.8797945 27.1926418,51.6143794 C15.4857647,59.3489644 17.7001658,50.3680542 17.7001658,50.3680542 C17.7001658,50.3680542 16.8370976,55.265693 11.1691486,56.9338123 C5.49992477,58.6019315 -4.40432527,65.9198043 2.17768566,81.6151168 C2.17768566,81.6151168 5.06392869,87.488472 8.04323521,90.1399304 L8.98789338,91.0800737 C11.6472145,94.0504186 17.5420854,96.9254787 17.5420854,96.9254787 C33.2902127,103.484884 40.6345793,93.6146495 42.3084473,87.9661664 C43.9823153,82.3164129 48.8968325,81.4563088 48.8968325,81.4563088 C48.8968325,81.4563088 39.8836972,83.6643753 47.6449373,71.9964337 C55.4061774,60.3310331 57.7480627,68.2447535 57.7480627,68.2447535 C58.4810971,65.664441 60.3882612,63.0968332 64.3198749,61.0031085 C77.6572754,53.9050261 67.1602236,38.4942975 67.1602236,38.4942975" id="Stroke-4"></path>
                        <path d="M39.5811771,77.5944793 C39.5811771,77.5944793 38.3305568,78.8014201 36.7905473,77.5919384 C35.2518126,76.3837271 36.6834605,74.852818 36.6834605,74.852818 L40.2632178,71.2866255 L40.2950888,71.2091272 L43.8735712,67.6416642 C43.8735712,67.6416642 45.306494,66.1120255 43.7664845,64.9038142 C42.2277498,63.6943325 40.9758546,64.9012733 40.9758546,64.9012733" id="Stroke-6"></path>
                        <path d="M21.3954238,59.525813 C21.3954238,59.525813 20.1843236,60.7721382 21.3979735,62.3068587 C22.6103486,63.8403088 24.1465336,62.4135777 24.1465336,62.4135777 L27.725016,58.8461147 L27.8027814,58.8143531 L31.3812638,55.2481606 C31.3812638,55.2481606 32.9174488,53.8201591 34.1298238,55.3548796 C35.3434737,56.8883297 34.1323735,58.1359253 34.1323735,58.1359253" id="Stroke-8"></path>
                        <path d="M21.9437335,70.8448851 L28.1228943,77.0028242 L18.1752996,83.9332054 L15.1526484,80.9209353 C15.2227648,79.8397704 21.9437335,70.8448851 21.9437335,70.8448851 L21.9437335,70.8448851 Z" id="Stroke-10"></path>
                        <path d="M4.8900402,84.0925216 C13.2466317,79.4261073 12.2752018,68.6373268 8.36398554,65.8143558 C4.45276928,62.9926552 1.68381175,66.9298232 1.68381175,66.9298232" id="Stroke-12"></path>
                        <path d="M15.1530309,80.9208082 L6.9825664,89.0632121" id="Stroke-14"></path>
                        <path d="M18.175937,83.9333325 L10.0449926,92.036352" id="Stroke-16"></path>
                        <path d="M89.2471219,6.790122 L90.7565353,2.88852699 C90.7565353,2.88852699 95.1470922,-0.353697183 96.6004125,1.08827948 L98.5305238,3.011762 C99.9774698,4.45882052 96.7240722,8.83556907 96.7240722,8.83556907 L92.8090314,10.3397985" id="Stroke-18"></path>
                        <path d="M84.8087584,9.54690187 L82.9678861,7.71235183" id="Stroke-20"></path>
                        <path d="M87.6508919,20.578468 L85.8100195,18.743918" id="Stroke-22"></path>
                        <path d="M87.762823,20.4412579 C86.8602346,21.3407464 86.7824693,22.7230113 87.5894445,23.5284855 C88.3964197,24.3326892 89.7834481,24.2551909 90.6873113,23.3557023 C91.5898997,22.4549434 91.6676651,21.0726785 90.8606899,20.2684748 C90.0524398,19.4642711 88.6654114,19.5417694 87.762823,20.4412579 L87.762823,20.4412579 Z" id="Stroke-24"></path>
                        <path d="M79.996611,4.75128134 C79.0940227,5.65076987 79.0162573,7.03303472 79.8232325,7.83850891 C80.6302077,8.64271263 82.0172361,8.56521433 82.9210993,7.6657258 C83.8236877,6.76496681 83.9014531,5.38270196 83.0944779,4.57849823 C82.2862279,3.77429451 80.8991994,3.85179281 79.996611,4.75128134 L79.996611,4.75128134 Z" id="Stroke-26"></path>
                        <path d="M77.1668435,14.3329939 L79.0077158,16.167544" id="Stroke-28"></path>
                        <path d="M77.3045265,14.2213201 C76.4019381,15.1208087 75.0149097,15.198307 74.2066596,14.3941032 C73.3996844,13.5898995 73.4774498,12.2076347 74.3800382,11.3068757 C75.2839014,10.4073872 76.6709299,10.3298888 77.4779051,11.1340926 C78.2848802,11.9395668 78.2071149,13.3218316 77.3045265,14.2213201 L77.3045265,14.2213201 Z" id="Stroke-30"></path>
                        <path d="M93.2610905,15.0539823 L91.4202182,13.2194322" id="Stroke-32"></path>
                        <path d="M93.3730216,14.9168992 C92.4704333,15.8163877 92.3926679,17.1986526 93.1996431,18.0041268 C94.0066183,18.8083305 95.3936467,18.7308322 96.2975099,17.8313437 C97.2000983,16.9305847 97.2778637,15.5483198 96.4708885,14.7441161 C95.6626385,13.9399124 94.27561,14.0174107 93.3730216,14.9168992 L93.3730216,14.9168992 Z" id="Stroke-34"></path>
                        <path d="M32.9151541,71.9308778 L26.7359933,65.7729387" id="Stroke-36"></path>
                    </g>
                </g>
            </g>
        </g>
    </g>
</svg>