<?xml version="1.0" encoding="UTF-8"?>
<svg width="47px" height="61px" viewBox="0 0 47 61" version="1.1" xmlns="http://www.w3.org/2000/svg" xmlns:xlink="http://www.w3.org/1999/xlink">
    <!-- Generator: Sketch 51.3 (57544) - http://www.bohemiancoding.com/sketch -->
    <title>Page 1</title>
    <desc>Created with Sketch.</desc>
    <defs></defs>
    <g id="Page-1" stroke="none" stroke-width="1" fill="none" fill-rule="evenodd">
        <g id="select-category-ipad-horizontal" transform="translate(-701.000000, -300.000000)" stroke="#A5A5A5" stroke-width="2">
            <g id="Group-5" transform="translate(512.000000, 239.000000)">
                <g id="Page-1" transform="translate(190.000000, 62.000000)">
                    <path d="M6.85533051,19.8669857 L6.85533051,7.66233766e-05 L13.4070254,7.66233766e-05 L13.4070254,19.8669857 C13.3627881,19.8348039 20.240161,24.1471675 20.2622797,28.1453753 L20.2622797,56.9481026 C20.2622797,57.7940247 19.5796525,58.4805701 18.7368559,58.4805701 L1.5255,58.4805701 C0.68270339,58.4805701 7.62711861e-05,57.7940247 7.62711861e-05,56.9481026 L7.62711861e-05,28.1453753 C7.62711861e-05,24.1640247 6.85533051,19.8669857 6.85533051,19.8669857 L6.85533051,19.8669857 Z" id="Stroke-1" stroke-linejoin="round"></path>
                    <path d="M6.85533051,15.9765104 L13.4070254,15.9765104" id="Stroke-3"></path>
                    <path d="M6.00467797,4.51334675 L14.3945085,4.51334675" id="Stroke-5" stroke-linecap="round" stroke-linejoin="round"></path>
                    <path d="M0,30.6649818 L20.2622034,30.6649818" id="Stroke-7" stroke-linecap="round" stroke-linejoin="round"></path>
                    <path d="M0,43.6488896 L20.2622034,43.6488896" id="Stroke-9" stroke-linecap="round" stroke-linejoin="round"></path>
                    <path d="M44.9029831,36.0810286 L42.8390847,22.5738597 C42.7216271,21.8037948 42.0626441,21.2360156 41.2877288,21.2360156 L29.9591695,21.2360156 C29.1842542,21.2360156 28.5252712,21.8037948 28.4078136,22.5738597 L26.3439153,36.0810286 L26.3439153,36.0810286 C26.3439153,40.8224831 30.5197627,44.7011584 35.6230678,44.7011584 L35.6230678,44.7011584 C40.7271356,44.7011584 44.9029831,40.8224831 44.9029831,36.0810286 L44.9029831,36.0810286 L44.9029831,36.0810286 Z" id="Stroke-11"></path>
                    <path d="M26.9758983,31.9436727 L44.2711525,31.9436727" id="Stroke-13" stroke-linecap="round" stroke-linejoin="round"></path>
                    <path d="M35.6233729,55.0794883 L35.6233729,44.7008519" id="Stroke-15" stroke-linecap="round" stroke-linejoin="round"></path>
                    <path d="M42.4894576,58.0473416 L28.7575932,58.0473416 C28.7575932,58.0473416 28.9292034,55.2843026 35.6235254,55.5394584 C35.6235254,55.5394584 41.8030169,55.3195494 42.4894576,58.0473416 L42.4894576,58.0473416 Z" id="Stroke-17" stroke-linecap="round" stroke-linejoin="round"></path>
                </g>
            </g>
        </g>
    </g>
</svg>